<svg width="27" height="28" viewBox="0 0 27 28" fill="none" xmlns="http://www.w3.org/2000/svg">
<path d="M14.6565 2.75114C15.4774 2.74799 16.2984 2.75624 17.1191 2.77589L17.3374 2.78377C17.5894 2.79277 17.838 2.80402 18.1384 2.81752C19.3354 2.87377 20.1521 3.06277 20.8687 3.34064C21.6112 3.62639 22.2367 4.01339 22.8622 4.63889C23.4341 5.20095 23.8768 5.88083 24.1594 6.63126C24.4372 7.34789 24.6262 8.16576 24.6825 9.36276C24.696 9.66201 24.7072 9.91177 24.7162 10.1638L24.723 10.382C24.743 11.2024 24.7516 12.0229 24.7489 12.8435L24.75 13.6828V15.1565C24.7528 15.9775 24.7441 16.7984 24.7241 17.6191L24.7174 17.8374C24.7084 18.0894 24.6971 18.338 24.6836 18.6384C24.6274 19.8354 24.4361 20.6521 24.1594 21.3688C23.8777 22.12 23.435 22.8004 22.8622 23.3623C22.2997 23.9341 21.6195 24.3767 20.8687 24.6594C20.1521 24.9373 19.3354 25.1263 18.1384 25.1825C17.838 25.196 17.5894 25.2073 17.3374 25.2163L17.1191 25.223C16.2984 25.243 15.4774 25.2516 14.6565 25.2489L13.8172 25.25H12.3446C11.5236 25.2528 10.7027 25.2442 9.88198 25.2241L9.66373 25.2174C9.39666 25.2077 9.12966 25.1965 8.86273 25.1836C7.66573 25.1274 6.84898 24.9361 6.13123 24.6594C5.3805 24.3774 4.7005 23.9347 4.13885 23.3623C3.56628 22.8001 3.12323 22.1198 2.8406 21.3688C2.56273 20.6521 2.37373 19.8354 2.31748 18.6384C2.30495 18.3714 2.2937 18.1044 2.28373 17.8374L2.2781 17.6191C2.25736 16.7984 2.24799 15.9775 2.24998 15.1565V12.8435C2.24684 12.0229 2.25509 11.2024 2.27473 10.382L2.2826 10.1638C2.2916 9.91177 2.30285 9.66201 2.31635 9.36276C2.3726 8.16464 2.5616 7.34902 2.83948 6.63126C3.12227 5.88046 3.56619 5.20077 4.13998 4.64002C4.70123 4.06711 5.38081 3.62366 6.13123 3.34064C6.84898 3.06277 7.6646 2.87377 8.86273 2.81752L9.66373 2.78377L9.88198 2.77814C10.7023 2.75741 11.5229 2.74803 12.3435 2.75002L14.6565 2.75114ZM13.5 8.37614C12.7547 8.3656 12.0147 8.50329 11.3231 8.78122C10.6314 9.05914 10.002 9.47175 9.47118 9.99508C8.9404 10.5184 8.51893 11.142 8.23125 11.8296C7.94357 12.5173 7.79543 13.2552 7.79543 14.0006C7.79543 14.746 7.94357 15.4839 8.23125 16.1715C8.51893 16.8592 8.9404 17.4828 9.47118 18.0061C10.002 18.5294 10.6314 18.942 11.3231 19.2199C12.0147 19.4979 12.7547 19.6356 13.5 19.625C14.9918 19.625 16.4226 19.0324 17.4775 17.9775C18.5323 16.9226 19.125 15.4919 19.125 14C19.125 12.5082 18.5323 11.0774 17.4775 10.0225C16.4226 8.96765 14.9918 8.37614 13.5 8.37614ZM13.5 10.6261C13.9483 10.6179 14.3938 10.699 14.8104 10.8649C15.227 11.0307 15.6064 11.2779 15.9264 11.592C16.2464 11.9061 16.5006 12.2808 16.6741 12.6943C16.8477 13.1077 16.9371 13.5516 16.9372 14C16.9372 14.4484 16.848 14.8923 16.6745 15.3058C16.5011 15.7193 16.247 16.0941 15.9272 16.4083C15.6073 16.7226 15.228 16.9699 14.8114 17.1358C14.3949 17.3018 13.9494 17.3831 13.5011 17.375C12.606 17.375 11.7476 17.0194 11.1146 16.3865C10.4817 15.7536 10.1261 14.8951 10.1261 14C10.1261 13.1049 10.4817 12.2465 11.1146 11.6135C11.7476 10.9806 12.606 10.625 13.5011 10.625L13.5 10.6261ZM19.4062 6.68864C19.0433 6.70317 18.7001 6.85756 18.4484 7.11948C18.1968 7.38141 18.0562 7.73054 18.0562 8.09376C18.0562 8.45699 18.1968 8.80612 18.4484 9.06805C18.7001 9.32997 19.0433 9.48436 19.4062 9.49889C19.7792 9.49889 20.1369 9.35073 20.4006 9.08701C20.6643 8.82329 20.8125 8.4656 20.8125 8.09264C20.8125 7.71968 20.6643 7.36199 20.4006 7.09827C20.1369 6.83455 19.7792 6.68639 19.4062 6.68639V6.68864Z" fill="#F8F9FA"/>
</svg>
