<svg width="119" height="119" viewBox="0 0 119 119" fill="none" xmlns="http://www.w3.org/2000/svg">
<path d="M109.436 96.3686L109.463 96.3531L100.794 81.3389H104.206V81.3234C104.918 81.3234 105.495 80.7474 105.495 80.0358C105.495 79.8157 105.424 79.6181 105.328 79.4372L105.351 79.4241L97.3337 65.538H99.2841V65.5273C99.5278 65.5273 99.7616 65.4306 99.9341 65.2583C100.107 65.0861 100.204 64.8524 100.204 64.6087C100.2 64.4586 100.16 64.3117 100.085 64.1814L100.1 64.1719L88.436 43.9669L88.4241 43.9741C88.297 43.7069 88.0972 43.4811 87.8476 43.3223C87.5979 43.1636 87.3086 43.0785 87.0128 43.0768C86.3892 43.0768 85.8609 43.4469 85.6026 43.9717L85.5967 43.9681L73.9323 64.1719L73.9347 64.1731C73.8563 64.3051 73.8132 64.4551 73.8097 64.6087C73.8097 65.1156 74.2215 65.5273 74.7296 65.5273V65.538H76.7062L68.6892 79.4241L68.6927 79.4253C68.5833 79.6106 68.5231 79.8207 68.5178 80.0358C68.5178 80.7474 69.095 81.3234 69.8066 81.3234V81.3389H73.2504L70.7514 85.6681L60.7566 68.356H65.5714V68.3345C66.5757 68.3345 67.3897 67.5194 67.3897 66.5162C67.3897 66.2068 67.3052 65.9188 67.1684 65.663L67.1862 65.6523L55.8729 46.0566H58.6253V46.0423C58.796 46.0424 58.965 46.0089 59.1226 45.9436C59.2803 45.8784 59.4235 45.7827 59.5441 45.6619C59.6647 45.5412 59.7603 45.3979 59.8255 45.2402C59.8906 45.0825 59.9239 44.9134 59.9236 44.7428C59.9236 44.5215 59.8534 44.3227 59.7558 44.1406L59.7785 44.1276L43.316 15.6187L43.31 15.6223C43.1283 15.2452 42.8441 14.9269 42.4899 14.7038C42.1357 14.4807 41.7259 14.3619 41.3073 14.3609C40.4053 14.3609 39.6318 14.8988 39.2795 15.6699L22.8492 44.1276L22.8528 44.1299C22.7423 44.3161 22.6817 44.5276 22.6766 44.744C22.6763 44.9145 22.7096 45.0834 22.7747 45.2411C22.8397 45.3987 22.9352 45.542 23.0557 45.6627C23.1762 45.7834 23.3193 45.8792 23.4768 45.9445C23.6343 46.0098 23.8032 46.0435 23.9737 46.0435V46.0577H26.7643L15.5842 65.4214C15.342 65.7351 15.2099 66.1199 15.2082 66.5162C15.2082 67.5206 16.0233 68.3345 17.0265 68.3345V68.356H21.8865L9.81987 89.2583C9.53427 89.632 9.35934 90.0937 9.35934 90.6006C9.35934 91.8287 10.3566 92.8259 11.5858 92.8259V92.8509H35.1228V102.883C35.1228 103.852 35.9094 104.64 36.8793 104.64H45.6651C46.6349 104.64 47.4227 103.854 47.4227 102.883V92.8509H66.6055L64.5837 96.3531L64.5872 96.3555C64.4635 96.5804 64.373 96.8267 64.373 97.1028C64.373 97.9739 65.0787 98.6795 65.9498 98.6795V98.6974H82.6288V103.387C82.6288 104.075 83.1869 104.632 83.8736 104.632H90.0996C90.7875 104.632 91.3444 104.075 91.3444 103.387V98.6974H108.064V98.6795C108.935 98.6795 109.642 97.9739 109.642 97.1028C109.636 96.8447 109.565 96.5922 109.436 96.3686Z" fill="#F8F9FA"/>
</svg>
