<svg width="28" height="28" viewBox="0 0 28 28" fill="none" xmlns="http://www.w3.org/2000/svg">
<path d="M14.2846 4.66663C14.9076 4.67013 16.4663 4.68529 18.123 4.75179L18.711 4.77746C20.3781 4.85563 22.0441 4.99096 22.8713 5.22079C23.9738 5.53113 24.8395 6.43413 25.1323 7.57979C25.599 9.39979 25.6573 12.9488 25.6643 13.8086L25.6655 13.986V14.189C25.6573 15.0488 25.599 18.599 25.1323 20.4178C24.836 21.567 23.9691 22.4711 22.8713 22.7768C22.0441 23.0066 20.3781 23.142 18.711 23.2201L18.123 23.247C16.4663 23.3123 14.9076 23.3286 14.2846 23.331L14.0105 23.3321H13.713C12.3946 23.324 6.88098 23.2645 5.12631 22.7768C4.02498 22.4665 3.15815 21.5635 2.86531 20.4178C2.39865 18.5978 2.34031 15.0488 2.33331 14.189V13.8086C2.34031 12.9488 2.39865 9.39863 2.86531 7.57979C3.16165 6.43063 4.02848 5.52646 5.12748 5.22196C6.88098 4.73313 12.3958 4.67363 13.7141 4.66663H14.2846ZM11.6655 9.91663V18.0833L18.6655 14L11.6655 9.91663Z" fill="#F8F9FA"/>
</svg>
